<svg width="138" height="65" viewBox="0 0 138 65" fill="none" xmlns="http://www.w3.org/2000/svg">
<g clip-path="url(#clip0_441_147)">
<path d="M14.97 61.58H7.10998L5.84998 65.3H0.47998L8.09998 44.24H14.04L21.66 65.3H16.23L14.97 61.58ZM13.65 57.62L11.04 49.91L8.45998 57.62H13.65Z" fill="white"/>
<path d="M40.7191 65.3L36.3391 57.35H35.1091V65.3H29.9791V44.24H38.5891C40.2491 44.24 41.6591 44.53 42.8191 45.11C43.9991 45.69 44.8791 46.49 45.4591 47.51C46.0391 48.51 46.3291 49.63 46.3291 50.87C46.3291 52.27 45.9291 53.52 45.1291 54.62C44.3491 55.72 43.1891 56.5 41.6491 56.96L46.5091 65.3H40.7191ZM35.1091 53.72H38.2891C39.2291 53.72 39.9291 53.49 40.3891 53.03C40.8691 52.57 41.1091 51.92 41.1091 51.08C41.1091 50.28 40.8691 49.65 40.3891 49.19C39.9291 48.73 39.2291 48.5 38.2891 48.5H35.1091V53.72Z" fill="white"/>
<path d="M54.6794 54.74C54.6794 52.66 55.1294 50.81 56.0294 49.19C56.9294 47.55 58.1794 46.28 59.7794 45.38C61.3994 44.46 63.2294 44 65.2694 44C67.7694 44 69.9094 44.66 71.6894 45.98C73.4694 47.3 74.6594 49.1 75.2594 51.38H69.6194C69.1994 50.5 68.5994 49.83 67.8194 49.37C67.0594 48.91 66.1894 48.68 65.2094 48.68C63.6294 48.68 62.3494 49.23 61.3694 50.33C60.3894 51.43 59.8994 52.9 59.8994 54.74C59.8994 56.58 60.3894 58.05 61.3694 59.15C62.3494 60.25 63.6294 60.8 65.2094 60.8C66.1894 60.8 67.0594 60.57 67.8194 60.11C68.5994 59.65 69.1994 58.98 69.6194 58.1H75.2594C74.6594 60.38 73.4694 62.18 71.6894 63.5C69.9094 64.8 67.7694 65.45 65.2694 65.45C63.2294 65.45 61.3994 65 59.7794 64.1C58.1794 63.18 56.9294 61.91 56.0294 60.29C55.1294 58.67 54.6794 56.82 54.6794 54.74Z" fill="white"/>
<path d="M99.551 44.24V48.35H93.971V65.3H88.841V48.35H83.261V44.24H99.551Z" fill="white"/>
<path d="M113.256 44.24V65.3H108.126V44.24H113.256Z" fill="white"/>
<path d="M138.123 44.24V48.35H132.543V65.3H127.413V48.35H121.833V44.24H138.123Z" fill="white"/>
<path fill-rule="evenodd" clip-rule="evenodd" d="M92.8291 0L127 25.186L123.743 27.054L92.777 4.23014L59.4681 27.9859L70.1404 32.7158L67.6932 35.0498L45.0176 24.9968L10.4102 40L8 37.6505L45.0458 21.5912L50.4612 23.9915V8.46876H66.7465V18.6036L92.8291 0ZM55.8441 26.3791L54.8018 25.9174V11.2926H62.4016V21.7014L55.8441 26.3791Z" fill="white"/>
<path fill-rule="evenodd" clip-rule="evenodd" d="M112.025 38.3077V18H114V38.8154C114 39.1296 113.854 39.4309 113.595 39.653C113.336 39.8752 112.984 40 112.618 40H76.3823C76.0157 40 75.6641 39.8752 75.4049 39.653C75.1456 39.4309 75 39.1296 75 38.8154V28.5769H76.9747V38.3077H99.6835V29.8462H106.595V38.3077H112.025ZM104.62 38.3077H101.658V31.5385H104.62V38.3077Z" fill="white"/>
</g>
<defs>
<clipPath id="clip0_441_147">
<rect width="138" height="65" fill="white"/>
</clipPath>
</defs>
</svg>
